<?xml version="1.0" encoding="utf-8"?>
<!-- Generator: Adobe Illustrator 16.0.0, SVG Export Plug-In . SVG Version: 6.00 Build 0)  -->
<!DOCTYPE svg PUBLIC "-//W3C//DTD SVG 1.1//EN" "http://www.w3.org/Graphics/SVG/1.1/DTD/svg11.dtd">
<svg version="1.1" id="Layer_1" xmlns="http://www.w3.org/2000/svg" xmlns:xlink="http://www.w3.org/1999/xlink" x="0px" y="0px"
	 width="512px" height="512px" viewBox="0 0 512 512" enable-background="new 0 0 512 512" xml:space="preserve">
<g>
	<path fill="#666666" d="M221.746,233.164H256c6.305,0,11.418-5.112,11.418-11.418c0-6.306-5.113-11.419-11.418-11.419h-34.254
		c-6.307,0-11.418,5.113-11.418,11.419C210.328,228.051,215.439,233.164,221.746,233.164z"/>
	<path fill="#666666" d="M290.255,278.836h-68.509c-6.307,0-11.418,5.113-11.418,11.419s5.111,11.419,11.418,11.419h68.509
		c6.306,0,11.419-5.113,11.419-11.419S296.561,278.836,290.255,278.836z"/>
	<path fill="#666666" d="M349.566,99H162.435C127.4,99,99,127.4,99,162.435v187.131C99,384.599,127.4,413,162.435,413h187.131
		C384.599,413,413,384.599,413,349.565V162.435C413,127.4,384.599,99,349.566,99z M353.055,289.619
		c0,35.035-28.4,63.436-63.436,63.436h-32.984c-0.213,0-0.424-0.006-0.635-0.009c-0.212,0.003-0.422,0.009-0.635,0.009H222.38
		c-35.035,0-63.435-28.4-63.435-63.436V222.38c0-35.034,28.4-63.435,63.435-63.435h32.985c0.213,0,0.423,0.006,0.635,0.009
		c34.53,0.338,62.452,28.262,62.791,62.792h0.009c0,9.458,7.669,11.418,17.127,11.418h5.709c6.307,0,11.419,5.709,11.419,17.127
		V289.619z"/>
</g>
</svg>
