<?xml version="1.0" encoding="utf-8"?>
<!-- Generator: Adobe Illustrator 16.0.0, SVG Export Plug-In . SVG Version: 6.00 Build 0)  -->
<!DOCTYPE svg PUBLIC "-//W3C//DTD SVG 1.1//EN" "http://www.w3.org/Graphics/SVG/1.1/DTD/svg11.dtd">
<svg version="1.1" id="Layer_1" xmlns="http://www.w3.org/2000/svg" xmlns:xlink="http://www.w3.org/1999/xlink" x="0px" y="0px"
	 width="512px" height="512px" viewBox="0 0 512 512" enable-background="new 0 0 512 512" xml:space="preserve">
<path fill="#666666" d="M363.786,107H163.867c-25.98,0-48.866,18.876-48.866,44.856v199.919c0,25.98,22.886,49.224,48.866,49.224
	h123.784c-0.231-38.534,0.055-81.445-0.133-118.732c-7.895-0.079-15.797-0.487-23.692-0.609c0.029-13.178,0.013-26.629,0.018-39.805
	c7.89-0.098,15.785-0.116,23.675-0.191c0.242-12.814-0.24-25.707,0.254-38.509c0.787-10.136,4.651-20.382,12.23-27.385
	c9.175-8.734,22.223-11.701,34.528-12.069c13.011-0.116,26.023-0.054,39.04-0.048c0.052,13.729,0.052,27.46-0.006,41.189
	c-8.412-0.014-16.829,0.016-25.242-0.018c-5.329-0.333-10.808,3.709-11.776,8.998c-0.127,9.188-0.047,18.38-0.041,27.564
	c12.334,0.052,24.674-0.014,37.008,0.031c-0.901,13.294-2.555,26.523-4.485,39.702c-10.897,0.098-21.802,1.08-32.694,1.143
	c-0.093,37.275,0.028,80.205-0.066,118.738h27.518c25.982,0,45.214-23.243,45.214-49.223V151.857
	C409.001,125.877,389.768,107,363.786,107z"/>
</svg>
