<?xml version="1.0" encoding="utf-8"?>
<!-- Generator: Adobe Illustrator 16.0.0, SVG Export Plug-In . SVG Version: 6.00 Build 0)  -->
<!DOCTYPE svg PUBLIC "-//W3C//DTD SVG 1.1//EN" "http://www.w3.org/Graphics/SVG/1.1/DTD/svg11.dtd">
<svg version="1.1" id="icon-github" xmlns="http://www.w3.org/2000/svg" xmlns:xlink="http://www.w3.org/1999/xlink" x="0px"
	 y="0px" width="595.279px" height="841.891px" viewBox="0 0 595.279 841.891" enable-background="new 0 0 595.279 841.891"
	 xml:space="preserve">
<path fill="#666666" d="M547.445,420.945c0,55.588-16.221,105.584-48.664,149.988c-32.441,44.404-74.354,75.134-125.73,92.185
	c-5.98,1.104-10.354,0.333-13.117-2.317c-2.765-2.649-4.146-5.975-4.146-9.971v-70.095c0-21.486-5.755-37.212-17.264-47.177
	c12.629-1.333,23.981-3.323,34.059-5.975c10.078-2.651,20.487-6.966,31.23-12.947c10.743-5.98,19.715-13.344,26.915-22.089
	s13.067-20.375,17.604-34.889c4.535-14.514,6.804-31.182,6.804-50.003c0-26.802-8.744-49.614-26.234-68.437
	c8.192-20.154,7.307-42.74-2.657-67.755c-6.208-1.999-15.18-0.78-26.915,3.657c-11.734,4.436-21.919,9.312-30.551,14.626
	l-12.628,7.973c-20.594-5.754-41.854-8.632-63.779-8.632c-21.927,0-43.187,2.877-63.78,8.632c-3.543-2.438-8.249-5.428-14.115-8.972
	c-5.867-3.544-15.116-7.81-27.744-12.799c-12.629-4.989-22.153-6.484-28.574-4.486c-9.751,25.03-10.523,47.615-2.316,67.755
	c-17.489,18.822-26.234,41.634-26.234,68.437c0,18.821,2.268,35.434,6.804,49.834c4.535,14.398,10.347,26.027,17.434,34.888
	c7.087,8.858,16.002,16.278,26.745,22.259s21.153,10.297,31.23,12.947s21.43,4.643,34.059,5.975
	c-8.857,7.966-14.287,19.367-16.286,34.207c-4.647,2.211-9.63,3.869-14.944,4.976c-5.315,1.105-11.63,1.657-18.942,1.657
	s-14.562-2.381-21.75-7.143c-7.187-4.763-13.33-11.687-18.432-20.771c-4.21-7.088-9.581-12.842-16.115-17.264
	s-12.012-7.079-16.435-7.973l-6.654-0.999c-4.648,0-7.858,0.496-9.631,1.487c-1.771,0.992-2.324,2.269-1.658,3.827
	c0.666,1.56,1.665,3.11,2.998,4.655c1.332,1.545,2.771,2.87,4.314,3.977l2.317,1.658c4.876,2.211,9.694,6.42,14.457,12.628
	c4.762,6.208,8.249,11.855,10.46,16.944l3.316,7.632c2.877,8.419,7.753,15.229,14.627,20.432s14.293,8.524,22.259,9.971
	s15.661,2.219,23.089,2.317c7.427,0.1,13.571-0.29,18.432-1.17l7.634-1.339c0,8.418,0.057,18.276,0.17,29.572
	c0.112,11.296,0.171,17.277,0.171,17.943c0,3.981-1.439,7.307-4.316,9.971c-2.877,2.665-7.306,3.438-13.287,2.317
	c-51.378-17.052-93.289-47.778-125.73-92.185C53.49,526.485,37.27,476.489,37.27,420.901c0-46.291,11.401-88.973,34.207-128.049
	c22.805-39.076,53.752-70.024,92.842-92.842c39.091-22.819,81.772-34.221,128.05-34.208c46.275,0.014,88.959,11.417,128.05,34.208
	c39.09,22.791,70.036,53.738,92.842,92.842c22.805,39.104,34.207,81.787,34.207,128.049L547.445,420.945z"/>
</svg>
