<?xml version="1.0" encoding="utf-8"?>
<!-- Generator: Adobe Illustrator 16.0.0, SVG Export Plug-In . SVG Version: 6.00 Build 0)  -->
<!DOCTYPE svg PUBLIC "-//W3C//DTD SVG 1.1//EN" "http://www.w3.org/Graphics/SVG/1.1/DTD/svg11.dtd">
<svg version="1.1" id="Layer_1" xmlns="http://www.w3.org/2000/svg" xmlns:xlink="http://www.w3.org/1999/xlink" x="0px" y="0px"
	 width="512px" height="512px" viewBox="0 0 512 512" enable-background="new 0 0 512 512" xml:space="preserve">
<g>
	<path fill="#666666" d="M390.446,106.312H135.405c-13.93,0-26.109,10.03-26.109,23.801v255.598
		c0,13.851,12.179,26.189,26.109,26.189h254.961c14.01,0,24.517-12.418,24.517-26.189V130.113
		C414.963,116.342,404.376,106.312,390.446,106.312z M204.021,361.035h-43.78V224.918h43.78V361.035z M183.643,204.222h-0.318
		c-14.01,0-23.084-10.428-23.084-23.482c0-13.293,9.313-23.482,23.641-23.482s23.084,10.109,23.402,23.482
		C207.284,193.794,198.21,204.222,183.643,204.222z M364.019,361.035h-43.78v-74.427c0-17.83-6.368-30.01-22.209-30.01
		c-12.1,0-19.264,8.199-22.448,16.159c-1.193,2.866-1.512,6.766-1.512,10.746v77.531h-43.78V224.918h43.78v18.945
		c6.368-9.074,16.318-22.129,39.481-22.129c28.736,0,50.468,18.945,50.468,59.78V361.035z"/>
</g>
</svg>
