<?xml version="1.0" encoding="utf-8"?>
<!-- Generator: Adobe Illustrator 16.0.0, SVG Export Plug-In . SVG Version: 6.00 Build 0)  -->
<!DOCTYPE svg PUBLIC "-//W3C//DTD SVG 1.1//EN" "http://www.w3.org/Graphics/SVG/1.1/DTD/svg11.dtd">
<svg version="1.1" id="icon-weibo" xmlns="http://www.w3.org/2000/svg" xmlns:xlink="http://www.w3.org/1999/xlink" x="0px" y="0px"
	 width="595.279px" height="841.891px" viewBox="0 0 595.279 841.891" enable-background="new 0 0 595.279 841.891"
	 xml:space="preserve">
<g>
	<g id="UBrjrz.tif">
		<g>
			<path fill-rule="evenodd" clip-rule="evenodd" fill="#666666" d="M297.301,606.605c-84.484,0.008-168.968-0.039-253.451,0.08
				c-8.842,0.012-15.848-2.525-19.296-11.08c-1.197-2.969-1.45-6.484-1.452-9.748c-0.072-112.812-0.064-225.625-0.056-338.435
				c0.001-6.496-0.126-13.006,0.231-19.484c0.479-8.697,6.92-15.09,15.65-15.957c2.316-0.23,4.656-0.295,6.986-0.295
				c167.968-0.018,335.935-0.023,503.904-0.023c15.473,0,22.383,6.6,22.391,22.09c0.055,100.812,0,201.626-0.02,302.441
				c-0.004,16.662-0.191,33.33,0.062,49.99c0.152,10.195-6.867,20.641-20.5,20.586C466.935,606.432,382.119,606.6,297.301,606.605z
				 M505.369,256.87c-139.051,0-276.78,0-415.791,0c2.433,2.293,3.922,3.789,5.508,5.174c24.965,21.787,49.965,43.533,74.912,65.34
				c41.369,36.162,82.721,72.346,124.021,108.585c2.469,2.168,4.003,2.309,6.627-0.002c24.628-21.669,49.413-43.152,74.124-64.724
				c38.008-33.178,76-66.379,113.98-99.586C494.064,267.014,499.299,262.28,505.369,256.87z M93.809,567.803
				c0.567,0.699,1.136,1.396,1.704,2.096c134.635,0,269.27,0,403.907,0c0.629-0.758,1.258-1.516,1.891-2.273
				c-1.562-0.637-3.445-0.91-4.633-1.965c-46.523-41.402-93.008-82.844-139.379-124.414c-3.199-2.869-5.148-2.844-8.277-0.035
				c-12.398,11.117-25.039,21.965-37.562,32.941c-9.917,8.689-18.242,8.711-28.295-0.062c-12.042-10.51-24.021-21.094-36.089-31.574
				c-5.455-4.736-5.541-4.682-10.796,0.004c-46.118,41.109-92.222,82.236-138.376,123.305
				C96.813,566.793,95.185,567.156,93.809,567.803z M380.408,413.942c51.918,46.279,103.152,91.949,155.355,138.484
				c0-91.898,0-182.318,0-274.181C483.588,323.819,432.373,368.553,380.408,413.942z M59.435,278.596c0,91.611,0,181.908,0,273.568
				c52.173-46.523,103.386-92.191,154.969-138.187C162.557,368.684,111.438,324.026,59.435,278.596z"/>
		</g>
	</g>
</g>
</svg>
