<?xml version="1.0" encoding="utf-8"?>
<!-- Generator: Adobe Illustrator 16.0.0, SVG Export Plug-In . SVG Version: 6.00 Build 0)  -->
<!DOCTYPE svg PUBLIC "-//W3C//DTD SVG 1.1//EN" "http://www.w3.org/Graphics/SVG/1.1/DTD/svg11.dtd">
<svg version="1.1" id="Layer_1" xmlns="http://www.w3.org/2000/svg" xmlns:xlink="http://www.w3.org/1999/xlink" x="0px" y="0px"
	 width="512px" height="512px" viewBox="0 0 512 512" enable-background="new 0 0 512 512" xml:space="preserve">
<path fill="#666666" d="M437,150.359c-12.679,5.61-26.23,9.399-40.512,11.148c14.572-8.744,25.793-22.588,31.039-39.055
	c-13.625,8.088-28.707,13.989-44.811,17.123c-12.896-13.771-31.259-22.369-51.515-22.369c-38.98,0-70.53,31.622-70.53,70.604
	c0,5.538,0.582,10.929,1.821,16.103c-58.655-2.915-110.679-31.04-145.435-73.811c-6.048,10.42-9.544,22.588-9.544,35.484
	c0,24.482,12.532,46.123,31.477,58.801c-11.658-0.291-22.588-3.498-32.06-8.816c0,0.291,0,0.583,0,0.875
	c0,34.246,24.335,62.734,56.614,69.22c-5.902,1.603-12.168,2.477-18.58,2.477c-4.518,0-8.962-0.438-13.261-1.312
	c8.962,28.053,35.047,48.455,65.941,49.038c-24.118,18.944-54.575,30.237-87.654,30.237c-5.684,0-11.294-0.364-16.832-1.019
	C124.272,385.342,161.36,397,201.142,397c129.916,0,200.883-107.618,200.883-200.956c0-3.06-0.072-6.121-0.219-9.108
	C415.578,176.954,427.528,164.567,437,150.359z"/>
</svg>
