<?xml version="1.0" encoding="utf-8"?>
<!-- Generator: Adobe Illustrator 16.0.0, SVG Export Plug-In . SVG Version: 6.00 Build 0)  -->
<!DOCTYPE svg PUBLIC "-//W3C//DTD SVG 1.1//EN" "http://www.w3.org/Graphics/SVG/1.1/DTD/svg11.dtd">
<svg version="1.1" id="icon-weibo" xmlns="http://www.w3.org/2000/svg" xmlns:xlink="http://www.w3.org/1999/xlink" x="0px" y="0px"
	 width="595.279px" height="841.891px" viewBox="0 0 595.279 841.891" enable-background="new 0 0 595.279 841.891"
	 xml:space="preserve">
<path fill="#666666" d="M424.648,409.149c0,0,75.052-133.191-142.018-63.282c27.213-21.321,22.815-64.766,1.461-80.196
	c-79.471-57.402-273.689,125.817-273.689,234.72c0,66.217,71.359,152.314,233.972,152.314c204.573,0,268.57-111.848,268.57-166.283
	C512.944,411.348,424.648,409.149,424.648,409.149z M251.102,624.055c-95.292,8.881-177.417-36.314-183.409-100.97
	c-6.061-64.632,66.306-124.232,161.619-133.103c95.292-8.87,177.417,36.316,183.431,100.959
	C418.758,555.585,346.415,615.186,251.102,624.055z"/>
<path fill="#666666" d="M217.451,436.63c-51.601,8.735-87.358,51.668-79.861,95.838c7.477,44.192,55.351,72.944,106.951,64.22
	c51.578-8.735,87.337-51.635,79.861-95.839C316.905,456.656,269.053,427.916,217.451,436.63z M208.483,562.691
	c-16.669,4.574-33.605-4.083-37.833-19.347c-4.185-15.308,5.924-31.405,22.57-36.003c16.669-4.597,33.604,4.062,37.811,19.346
	C235.237,541.974,225.151,558.073,208.483,562.691z M251.771,513.624c-8.568,0-15.52-6.929-15.52-15.497
	c0-8.558,6.95-15.508,15.52-15.508c8.568,0,15.497,6.962,15.497,15.508C267.268,506.695,260.339,513.624,251.771,513.624z"/>
<path fill="#666666" d="M552.662,244.016c-34.252-43.791-89.144-62.78-154.522-53.464c-11.023,1.562-18.699,11.771-17.126,22.805
	c1.551,11,11.727,18.643,22.794,17.103c64.743-9.238,99.431,15.776,117.125,38.402c23.229,29.733,29.789,72.107,16.301,105.411
	c-4.184,10.32,0.781,22.08,11.112,26.253c2.487,1.004,5.031,1.482,7.563,1.482c7.955,0,15.496-4.753,18.678-12.585
	C593.328,343.179,584.526,284.75,552.662,244.016z"/>
<path fill="#666666" d="M417.518,263.708c-10.979,1.573-18.654,11.781-17.081,22.794c1.572,11.012,11.726,18.654,22.794,17.103
	c18.521-2.655,32.946,1.797,41.604,12.864c7.798,9.997,10.106,24.668,5.667,35.702c-4.185,10.32,0.804,22.068,11.111,26.252
	c2.51,1.004,5.031,1.473,7.564,1.473c7.955,0,15.52-4.753,18.677-12.585c9.941-24.5,5.512-54.2-11.269-75.667
	C486.289,278.458,462.313,257.304,417.518,263.708z"/>
</svg>
