<?xml version="1.0" encoding="utf-8"?>
<!-- Generator: Adobe Illustrator 16.0.0, SVG Export Plug-In . SVG Version: 6.00 Build 0)  -->
<!DOCTYPE svg PUBLIC "-//W3C//DTD SVG 1.1//EN" "http://www.w3.org/Graphics/SVG/1.1/DTD/svg11.dtd">
<svg version="1.1" id="icon-zhihu" xmlns="http://www.w3.org/2000/svg" xmlns:xlink="http://www.w3.org/1999/xlink" x="0px" y="0px"
	 width="595.279px" height="841.891px" viewBox="0 0 595.279 841.891" enable-background="new 0 0 595.279 841.891"
	 xml:space="preserve">
<path fill="#666666" d="M204.506,450.284h112.165c0-26.373-12.434-41.82-12.434-41.82h-97.344
	c2.312-47.775,4.384-109.091,5.125-131.866h92.596c0,0-0.502-39.183-10.8-39.183s-162.761,0-162.761,0s9.796-51.239,22.856-73.86
	c0,0-48.603-2.623-65.18,62.18c-16.577,64.803-41.443,103.986-44.081,111.144c-2.637,7.158,14.316,3.391,21.476,0
	c7.158-3.391,39.561-15.071,48.979-60.281h50.326c0.677,28.652,2.672,116.461,2.043,131.866H63.865
	c-14.693,10.55-19.592,41.82-19.592,41.82h118.422c-4.94,32.703-13.613,74.854-25.739,97.204
	c-19.214,35.416-29.387,67.815-98.711,123.577c0,0-11.302,8.288,23.736,5.273c35.038-3.014,68.191-12.057,91.176-58.021
	c11.947-23.896,24.302-54.209,33.941-84.954l-0.032,0.106l97.579,112.351c0,0,12.811-30.142,3.392-63.296l-72.338-81.004
	l-24.488,18.113l-0.025,0.088c6.802-23.847,11.691-47.422,13.212-67.934C204.433,451.298,204.47,450.794,204.506,450.284z"/>
<path fill="#666666" d="M340.03,229.126v388.816h40.878l16.747,46.804l70.851-46.804h89.292V229.126H340.03z M515.725,576.122
	h-46.411l-57.888,38.24l-13.685-38.24h-14.447V272.517h132.431V576.122L515.725,576.122z"/>
</svg>
